<svg width="24" height="24" viewBox="0 0 24 24" fill="none" xmlns="http://www.w3.org/2000/svg">
<path d="M18.5455 18.5455C19.1603 18.5455 19.7499 18.7897 20.1847 19.2244C20.6194 19.6592 20.8636 20.2488 20.8636 20.8636C20.8636 21.4785 20.6194 22.0681 20.1847 22.5028C19.7499 22.9376 19.1603 23.1818 18.5455 23.1818C17.9306 23.1818 17.341 22.9376 16.9063 22.5028C16.4715 22.0681 16.2273 21.4785 16.2273 20.8636C16.2273 19.577 17.2589 18.5455 18.5455 18.5455ZM0 0H3.79023L4.87977 2.31818H22.0227C22.3301 2.31818 22.625 2.4403 22.8423 2.65767C23.0597 2.87504 23.1818 3.16986 23.1818 3.47727C23.1818 3.67432 23.1239 3.87136 23.0427 4.05682L18.8932 11.5561C18.4991 12.2632 17.7341 12.75 16.8648 12.75H8.22955L7.18636 14.6393L7.15159 14.7784C7.15159 14.8553 7.18212 14.929 7.23646 14.9833C7.29081 15.0377 7.36451 15.0682 7.44136 15.0682H20.8636V17.3864H6.95455C6.33973 17.3864 5.75009 17.1421 5.31534 16.7074C4.8806 16.2726 4.63636 15.683 4.63636 15.0682C4.63636 14.6625 4.74068 14.28 4.91455 13.9555L6.49091 11.1157L2.31818 2.31818H0V0ZM6.95455 18.5455C7.56937 18.5455 8.159 18.7897 8.59375 19.2244C9.02849 19.6592 9.27273 20.2488 9.27273 20.8636C9.27273 21.4785 9.02849 22.0681 8.59375 22.5028C8.159 22.9376 7.56937 23.1818 6.95455 23.1818C6.33973 23.1818 5.75009 22.9376 5.31534 22.5028C4.8806 22.0681 4.63636 21.4785 4.63636 20.8636C4.63636 19.577 5.66795 18.5455 6.95455 18.5455ZM17.3864 10.4318L20.6086 4.63636H5.95773L8.69318 10.4318H17.3864Z" fill="black"/>
</svg>
