<svg width="37" height="37" viewBox="0 0 37 37" fill="none" xmlns="http://www.w3.org/2000/svg">
<path fill-rule="evenodd" clip-rule="evenodd" d="M25.5796 35.5918C23.3351 36.5215 20.9295 37 18.5 37C13.5935 37 8.88795 35.0509 5.41852 31.5815C1.9491 28.112 0 23.4065 0 18.5C0 13.5935 1.9491 8.88795 5.41852 5.41852C8.88795 1.9491 13.5935 7.31126e-08 18.5 0C20.9295 -3.62017e-08 23.3351 0.478516 25.5796 1.40823C27.8242 2.33794 29.8636 3.70064 31.5815 5.41852C33.2994 7.13641 34.6621 9.17583 35.5918 11.4204C36.5215 13.6649 37 16.0705 37 18.5C37 20.9295 36.5215 23.3351 35.5918 25.5796C34.6621 27.8242 33.2994 29.8636 31.5815 31.5815C29.8636 33.2994 27.8242 34.6621 25.5796 35.5918Z" fill="#E25142"/>
<path d="M25.6592 12.4336L19.8486 18.2441C19.6611 18.4317 19.5557 18.686 19.5557 18.9512C19.5557 19.2164 19.6611 19.4707 19.8486 19.6582L25.6592 25.4688L24.5664 26.5615L18.7559 20.751C18.5683 20.5634 18.314 20.458 18.0488 20.458C17.8167 20.458 17.593 20.5387 17.415 20.6846L17.3418 20.751L11.5312 26.5615L10.4385 25.4688L16.249 19.6582C16.4366 19.4707 16.542 19.2164 16.542 18.9512C16.542 18.686 16.4366 18.4317 16.249 18.2441L10.4385 12.4336L11.5312 11.3408L17.3418 17.1514C17.5293 17.3389 17.7836 17.4443 18.0488 17.4443C18.314 17.4443 18.5683 17.3389 18.7559 17.1514L24.5664 11.3408L25.6592 12.4336Z" fill="white" stroke="white" stroke-width="2" stroke-linecap="round" stroke-linejoin="round"/>
</svg>
