<svg width="17" height="17" viewBox="0 0 17 17" fill="none" xmlns="http://www.w3.org/2000/svg">
<path fill-rule="evenodd" clip-rule="evenodd" d="M6.99731 15.5044L6.9875 15.5061L6.92421 15.5373L6.90638 15.5409L6.8939 15.5373L6.83061 15.5061C6.8211 15.5032 6.81397 15.5047 6.80922 15.5106L6.80565 15.5195L6.7905 15.9011L6.79495 15.9189L6.80387 15.9305L6.89658 15.9964L6.90995 16L6.92064 15.9964L7.01335 15.9305L7.02405 15.9162L7.02762 15.9011L7.01246 15.5204C7.01008 15.5109 7.00503 15.5056 6.99731 15.5044ZM7.23354 15.4036L7.22195 15.4054L7.05703 15.4883L7.04812 15.4972L7.04545 15.507L7.06149 15.8904L7.06595 15.9011L7.07308 15.9073L7.25226 15.9902C7.26355 15.9932 7.27217 15.9908 7.27811 15.9831L7.28167 15.9706L7.25137 15.4232C7.24839 15.4125 7.24245 15.406 7.23354 15.4036ZM6.59616 15.4054C6.59224 15.403 6.58754 15.4023 6.58306 15.4033C6.57857 15.4043 6.57465 15.4069 6.5721 15.4108L6.56675 15.4232L6.53644 15.9706C6.53703 15.9813 6.54208 15.9884 6.55159 15.992L6.56496 15.9902L6.74414 15.9073L6.75306 15.9002L6.75662 15.8904L6.77178 15.507L6.7691 15.4963L6.76019 15.4874L6.59616 15.4054Z" fill="white"/>
<path fill-rule="evenodd" clip-rule="evenodd" d="M8.4686 2.67435C7.38005 2.6746 6.31358 2.98147 5.39137 3.55983C4.46917 4.13818 3.72853 4.96462 3.25431 5.94446C2.7801 6.9243 2.59148 8.01791 2.71007 9.09999C2.82867 10.1821 3.24967 11.2089 3.92486 12.0627C4.60005 12.9166 5.5021 13.563 6.52768 13.9279C7.55326 14.2928 8.66089 14.3614 9.72365 14.1258C10.7864 13.8903 11.7613 13.3601 12.5367 12.5961C13.3121 11.8321 13.8566 10.8651 14.1078 9.80588H9.36003C9.0054 9.80588 8.66529 9.665 8.41453 9.41423C8.16376 9.16347 8.02288 8.82335 8.02288 8.46872C8.02288 8.11408 8.16376 7.77397 8.41453 7.5232C8.66529 7.27244 9.0054 7.13156 9.36003 7.13156H15.6C15.9547 7.13156 16.2948 7.27244 16.5456 7.5232C16.7963 7.77397 16.9372 8.11408 16.9372 8.46872C16.9372 10.427 16.2585 12.3247 15.0168 13.8389C13.775 15.3531 12.0468 16.3902 10.1264 16.7735C8.20608 17.1569 6.21221 16.8629 4.48423 15.9415C2.75625 15.0202 1.40098 13.5285 0.649099 11.7203C-0.102779 9.9121 -0.204786 7.89923 0.360443 6.02431C0.925671 4.14938 2.1232 2.52828 3.74918 1.43697C5.37516 0.345652 7.32909 -0.148433 9.27837 0.0388176C11.2277 0.226069 13.0518 1.08308 14.4403 2.46397C14.5648 2.58783 14.6637 2.73499 14.7313 2.89707C14.7989 3.05914 14.834 3.23294 14.8344 3.40855C14.8349 3.58417 14.8007 3.75815 14.734 3.92057C14.6672 4.08299 14.5691 4.23067 14.4452 4.35517C14.3213 4.47966 14.1742 4.57855 14.0121 4.64617C13.85 4.7138 13.6762 4.74884 13.5006 4.7493C13.146 4.75021 12.8055 4.61021 12.554 4.36007C11.4695 3.27882 10 2.67249 8.4686 2.67435Z" fill="white"/>
</svg>
