<svg width="22" height="22" viewBox="0 0 22 22" fill="none" xmlns="http://www.w3.org/2000/svg">
<path d="M9.34471 1.73976C9.5531 1.50701 9.80824 1.32082 10.0935 1.19335C10.3787 1.06588 10.6876 1 11 1C11.3124 1 11.6213 1.06588 11.9065 1.19335C12.1918 1.32082 12.4469 1.50701 12.6553 1.73976L13.4329 2.60854C13.6552 2.85684 13.9305 3.05196 14.2383 3.17946C14.5462 3.30696 14.8788 3.36358 15.2116 3.34511L16.378 3.28068C16.69 3.26348 17.0022 3.31228 17.294 3.42391C17.5859 3.53553 17.8509 3.70746 18.0718 3.92847C18.2927 4.14948 18.4645 4.41461 18.576 4.70652C18.6875 4.99844 18.7361 5.3106 18.7188 5.6226L18.6543 6.78801C18.636 7.12055 18.6927 7.45296 18.8202 7.76065C18.9477 8.06833 19.1427 8.34341 19.3909 8.56556L20.2596 9.34323C20.4926 9.55164 20.6789 9.80685 20.8065 10.0922C20.9341 10.3775 21 10.6866 21 10.9991C21 11.3117 20.9341 11.6207 20.8065 11.9061C20.6789 12.1914 20.4926 12.4466 20.2596 12.655L19.3909 13.4327C19.1426 13.655 18.9475 13.9302 18.82 14.2381C18.6925 14.546 18.6359 14.8786 18.6543 15.2114L18.7188 16.3779C18.736 16.6899 18.6872 17.002 18.5755 17.2939C18.4639 17.5858 18.292 17.8508 18.071 18.0717C17.85 18.2926 17.5849 18.4644 17.293 18.5759C17.0011 18.6874 16.6889 18.7361 16.3769 18.7187L15.2116 18.6543C14.879 18.636 14.5466 18.6927 14.2389 18.8202C13.9313 18.9477 13.6562 19.1427 13.4341 19.3908L12.6564 20.2596C12.448 20.4926 12.1928 20.6789 11.9075 20.8065C11.6221 20.9341 11.3131 21 11.0006 21C10.688 21 10.379 20.9341 10.0936 20.8065C9.80831 20.6789 9.55311 20.4926 9.34471 20.2596L8.56705 19.3908C8.3448 19.1425 8.06954 18.9474 7.76166 18.8199C7.45378 18.6924 7.12117 18.6358 6.78845 18.6543L5.62197 18.7187C5.30996 18.7359 4.99784 18.6871 4.70599 18.5755C4.41413 18.4639 4.1491 18.2919 3.9282 18.0709C3.7073 17.8499 3.5355 17.5848 3.42402 17.2929C3.31253 17.0009 3.26388 16.6888 3.28123 16.3768L3.34566 15.2114C3.36396 14.8788 3.30726 14.5464 3.17977 14.2387C3.05228 13.9311 2.85725 13.656 2.60911 13.4338L1.74036 12.6561C1.50743 12.4477 1.32109 12.1925 1.19352 11.9072C1.06594 11.6218 1 11.3128 1 11.0002C1 10.6877 1.06594 10.3786 1.19352 10.0933C1.32109 9.80797 1.50743 9.55276 1.74036 9.34435L2.60911 8.56667C2.8574 8.34441 3.05252 8.06914 3.18001 7.76125C3.30751 7.45336 3.36412 7.12074 3.34566 6.78801L3.28123 5.62149C3.26419 5.30957 3.31311 4.99756 3.42481 4.70583C3.5365 4.4141 3.70845 4.14919 3.92944 3.92841C4.15042 3.70762 4.41548 3.53592 4.70731 3.4245C4.99914 3.31308 5.31118 3.26445 5.62308 3.28179L6.78845 3.34622C7.12098 3.36452 7.45338 3.30782 7.76106 3.18033C8.06873 3.05283 8.34381 2.8578 8.56594 2.60965L9.34471 1.73976Z" stroke="black" stroke-width="2"/>
<path d="M8.22229 8.22266H8.2334V8.23377H8.22229V8.22266ZM13.777 13.7775H13.7881V13.7886H13.777V13.7775Z" stroke="black" stroke-width="3" stroke-linejoin="round"/>
<path d="M14.3331 7.66699L7.66754 14.3328" stroke="black" stroke-width="2" stroke-linecap="round" stroke-linejoin="round"/>
</svg>
