<svg width="111" height="32" viewBox="0 0 111 32" fill="none" xmlns="http://www.w3.org/2000/svg">
<path d="M37.3586 18.8438C37.3586 20.3594 37.6984 21.4922 38.3781 22.2422C39.0578 22.9844 40.1164 23.3555 41.5539 23.3555C42.5383 23.3555 43.3937 23.0781 44.1203 22.5234C44.8937 21.9141 45.2805 21.1406 45.2805 20.2031C45.2805 19.4062 44.8781 18.582 44.0734 17.7305C43.8469 17.4961 43.6125 17.2695 43.3703 17.0508C43.1359 16.8242 42.8586 16.582 42.5383 16.3242C42.2258 16.0664 41.9094 15.8008 41.5891 15.5273C41.2766 15.2461 40.9719 14.957 40.675 14.6602C40.3859 14.3633 40.1281 14.0508 39.9016 13.7227C39.3937 13.0039 39.1398 12.2891 39.1398 11.5781C39.1398 10.8594 39.2766 10.2266 39.55 9.67969C39.8234 9.13281 40.1906 8.67188 40.6516 8.29688C41.6047 7.5 42.7414 7.10156 44.0617 7.10156C44.7883 7.10156 45.343 7.17969 45.7258 7.33594C46.1086 7.49219 46.3859 7.60547 46.5578 7.67578C46.7297 7.74609 46.9016 7.78125 47.0734 7.78125C47.2531 7.78125 47.3898 7.76172 47.4836 7.72266C47.5852 7.68359 47.675 7.64453 47.7531 7.60547C47.8312 7.55859 47.9055 7.51562 47.9758 7.47656C48.0461 7.4375 48.1164 7.41797 48.1867 7.41797C48.343 7.44141 48.4172 7.51953 48.4094 7.65234C48.4094 7.77734 48.4055 7.87891 48.3977 7.95703C48.3898 8.03516 48.3781 8.15625 48.3625 8.32031C48.2766 9.03906 48.2102 9.56641 48.1633 9.90234C48.1164 10.2383 48.0852 10.4883 48.0695 10.6523C48.0617 10.8086 48.0422 10.9609 48.0109 11.1094C47.9484 11.4453 47.8273 11.6133 47.6477 11.6133C47.4289 11.6133 47.3117 11.4922 47.2961 11.25C47.1945 9.59375 46.4953 8.50391 45.1984 7.98047C44.7609 7.80078 44.3 7.71094 43.8156 7.71094C43.3312 7.71094 42.9094 7.78516 42.55 7.93359C42.1984 8.08203 41.8859 8.28125 41.6125 8.53125C41.0031 9.08594 40.6984 9.72266 40.6984 10.4414C40.6984 11.4805 41.3 12.4961 42.5031 13.4883C42.8312 13.7539 43.1672 14.0391 43.5109 14.3438C43.8625 14.6484 44.2453 14.9766 44.6594 15.3281C45.0812 15.6719 45.4641 16.043 45.8078 16.4414C46.6047 17.3477 47.0031 18.2578 47.0031 19.1719C47.0031 20.0859 46.8352 20.8359 46.4992 21.4219C46.1711 22.0078 45.7297 22.4922 45.175 22.875C44.0969 23.6172 42.7414 23.9883 41.1086 23.9883C39.8195 23.9883 38.5109 23.6484 37.1828 22.9688C36.7609 22.75 36.4641 22.5703 36.2922 22.4297C36.1047 22.2656 36.0109 22.1562 36.0109 22.1016C36.0734 21.6328 36.1594 21.1758 36.2687 20.7305C36.3781 20.2852 36.4562 19.9258 36.5031 19.6523C36.5578 19.3789 36.593 19.1914 36.6086 19.0898C36.6242 18.9883 36.6516 18.8906 36.6906 18.7969C36.7687 18.5547 36.8977 18.4336 37.0773 18.4336C37.2648 18.4336 37.3586 18.5703 37.3586 18.8438ZM55.9586 22.6641C55.9586 22.9688 56.0719 23.1211 56.2984 23.1211C56.6266 23.1211 57.2828 22.5781 58.2672 21.4922C59.2672 20.3984 59.9391 19.4844 60.2828 18.75C60.6656 18.1016 60.9703 17.2539 61.1969 16.207C61.2594 15.8945 61.2906 15.6758 61.2906 15.5508C61.2906 15.4258 61.2594 15.3398 61.1969 15.293C61.1422 15.2383 61.0797 15.1758 61.0094 15.1055C60.8141 14.9258 60.7164 14.7539 60.7164 14.5898C60.7164 14.418 60.7477 14.2617 60.8102 14.1211C60.8805 13.9805 60.9703 13.8594 61.0797 13.7578C61.3219 13.5469 61.5523 13.4414 61.7711 13.4414C61.9898 13.4414 62.1656 13.4883 62.2984 13.582C62.4391 13.6758 62.568 13.8047 62.6852 13.9688C62.9586 14.3359 63.0953 14.6602 63.0953 14.9414C63.0953 15.2227 63.0719 15.457 63.025 15.6445C62.9859 15.832 62.9352 16.0234 62.8727 16.2188C62.6539 16.8906 62.2867 17.5625 61.7711 18.2344C61.2633 18.9062 60.775 19.5039 60.3062 20.0273C59.8453 20.5508 59.357 21.0703 58.8414 21.5859C58.3336 22.1016 57.8375 22.5625 57.3531 22.9688C56.2828 23.875 55.5055 24.3281 55.0211 24.3281C54.4664 24.3281 54.1891 23.8398 54.1891 22.8633C54.1891 22.668 54.2047 22.5 54.2359 22.3594L54.6227 19.7812C54.6227 19.6953 54.5875 19.6523 54.5172 19.6523C54.4547 19.6523 54.3922 19.6875 54.3297 19.7578C54.275 19.8203 54.1852 19.9219 54.0602 20.0625C53.9352 20.2031 53.7477 20.4258 53.4977 20.7305C53.2477 21.0273 52.9781 21.3398 52.6891 21.668C52.4078 21.9883 52.1109 22.3086 51.7984 22.6289C51.4859 22.9492 51.1734 23.2344 50.8609 23.4844C50.1734 24.0547 49.5953 24.3398 49.1266 24.3398C48.8922 24.3398 48.6852 24.2461 48.5055 24.0586C48.3336 23.8789 48.2477 23.6914 48.2477 23.4961C48.2477 23.293 48.2594 23.1367 48.2828 23.0273L49.5016 14.9062C49.5016 14.7031 49.4039 14.6016 49.2086 14.6016C48.8727 14.6016 48.3609 14.9727 47.6734 15.7148C47.5328 15.8711 47.4312 15.9766 47.3687 16.0312L47.1461 15.8086C47.3023 15.5039 47.7437 15.0547 48.4703 14.4609C49.3062 13.7891 49.9352 13.4531 50.357 13.4531C50.5914 13.4531 50.7945 13.5469 50.9664 13.7344C51.1461 13.9141 51.2359 14.1055 51.2359 14.3086C51.2359 14.5117 51.2242 14.6641 51.2008 14.7656L49.982 22.8867V22.9336C49.982 23.0039 50.0133 23.0664 50.0758 23.1211C50.1461 23.168 50.232 23.1914 50.3336 23.1914C50.443 23.1914 50.6109 23.0977 50.8375 22.9102C51.0719 22.7227 51.3258 22.4844 51.5992 22.1953C51.8727 21.9062 52.1578 21.5859 52.4547 21.2344C52.7516 20.8828 53.0367 20.5352 53.3102 20.1914C54.1148 19.1836 54.5719 18.5938 54.6812 18.4219C54.7984 18.25 54.8805 18.0508 54.9273 17.8242L55.4898 13.9219C55.4898 13.7656 55.5328 13.6484 55.6187 13.5703C55.7047 13.4922 55.7789 13.4531 55.8414 13.4531H57.0133C57.1852 13.4766 57.2711 13.5898 57.2711 13.793L55.982 22.3594C55.9664 22.4219 55.9586 22.4766 55.9586 22.5234V22.6641ZM65.8984 14.4844L64.1523 22.9219C64.1523 23.0938 64.2461 23.1797 64.4336 23.1797C64.7461 23.1797 65.2969 22.7656 66.0859 21.9375C66.1719 21.8516 66.2344 21.7891 66.2734 21.75L66.4961 21.9727C66.3555 22.2539 66.043 22.5938 65.5586 22.9922C65.0742 23.3906 64.7188 23.6641 64.4922 23.8125C63.9922 24.1484 63.5938 24.3164 63.2969 24.3164C63.0078 24.3164 62.7891 24.2109 62.6406 24C62.4922 23.7812 62.418 23.5938 62.418 23.4375C62.418 23.2188 62.4375 23.0273 62.4766 22.8633L64.1641 14.9062V14.8594C64.1641 14.6875 64.0664 14.6016 63.8711 14.6016C63.5352 14.6016 63.0234 14.9727 62.3359 15.7148C62.1953 15.8711 62.0938 15.9766 62.0312 16.0312L61.8086 15.8086C61.9648 15.5039 62.4062 15.0547 63.1328 14.4609C63.9688 13.7891 64.5625 13.4531 64.9141 13.4531C65.2656 13.4531 65.5156 13.5625 65.6641 13.7812C65.8203 13.9922 65.8984 14.2266 65.8984 14.4844ZM65.418 10.3945C65.3242 10.2539 65.2617 10.1328 65.2305 10.0312C65.207 9.92188 65.1953 9.80469 65.1953 9.67969C65.1953 9.55469 65.2188 9.375 65.2656 9.14062C65.3203 8.90625 65.3984 8.67969 65.5 8.46094C65.7344 7.94531 66.043 7.6875 66.4258 7.6875C66.7773 7.6875 67.0078 7.88281 67.1172 8.27344C67.1484 8.38281 67.1641 8.5 67.1641 8.625C67.1641 8.75 67.1328 8.92578 67.0703 9.15234C67.0078 9.37891 66.9219 9.60156 66.8125 9.82031C66.5312 10.3359 66.2188 10.5938 65.875 10.5938C65.6719 10.5938 65.5195 10.5273 65.418 10.3945ZM68.2094 14.3555C68.2094 14.1758 68.0648 14.0859 67.7758 14.0859H66.7094L66.8148 13.6289C67.9008 13.5977 68.4789 13.4297 68.5492 13.125C68.557 13.0703 68.5766 12.9688 68.6078 12.8203C68.6391 12.6719 68.6703 12.5117 68.7016 12.3398C68.7406 12.168 68.7758 12.0039 68.807 11.8477C68.8383 11.6836 68.8734 11.5 68.9125 11.2969C68.9594 11.0859 69.0414 10.75 69.1586 10.2891C69.2758 9.82031 69.432 9.33594 69.6273 8.83594C69.8305 8.33594 70.0766 7.83984 70.3656 7.34766C70.6547 6.85547 71.0102 6.41406 71.432 6.02344C72.3695 5.15625 73.518 4.72266 74.8773 4.72266C75.3227 4.72266 75.6547 4.8125 75.8734 4.99219C76.2406 5.28125 76.4242 5.53516 76.4242 5.75391C76.4242 6.26953 76.2211 6.52734 75.8148 6.52734C75.5336 6.52734 75.2406 6.41406 74.9359 6.1875C74.6391 5.95312 74.4047 5.78516 74.2328 5.68359C74.0609 5.57422 73.8383 5.51953 73.5648 5.51953C73.2914 5.51953 73.0375 5.5625 72.8031 5.64844C72.5766 5.73437 72.3812 5.85156 72.2172 6C71.9828 6.21875 71.7484 6.60156 71.5141 7.14844C71.1781 8.11719 70.9125 9.09766 70.7172 10.0898C70.5219 11.082 70.4086 11.6523 70.3773 11.8008C70.3461 11.9492 70.3148 12.1094 70.2836 12.2812C70.1977 12.7422 70.1547 13 70.1547 13.0547C70.1547 13.3203 70.2758 13.4531 70.518 13.4531H72.018L71.8773 14.0859H70.2016C70.0687 14.0859 69.9789 14.1523 69.932 14.2852C69.893 14.4102 69.8578 14.5508 69.8266 14.707L67.7055 24.7148C67.4008 26.1602 66.8031 27.543 65.9125 28.8633C65.2016 29.9258 64.35 30.6797 63.3578 31.125C62.8344 31.3672 62.3578 31.4883 61.9281 31.4883C61.4984 31.4883 61.1898 31.4531 61.0023 31.3828C60.807 31.3125 60.6391 31.2227 60.4984 31.1133C60.225 30.8945 60.0883 30.6758 60.0883 30.457C60.0883 29.9414 60.2914 29.6836 60.6977 29.6836C60.9789 29.6836 61.2953 29.7969 61.6469 30.0234C61.9984 30.2578 62.2758 30.4258 62.4789 30.5273C62.6742 30.6367 62.8812 30.6914 63.1 30.6914C63.3109 30.6914 63.5141 30.6367 63.7094 30.5273C63.8969 30.418 64.0687 30.2773 64.225 30.1055C64.5297 29.7852 64.7875 29.3672 64.9984 28.8516C65.4594 27.5234 65.8305 26.1484 66.1117 24.7266L68.1977 14.4492C68.2055 14.4258 68.2094 14.3945 68.2094 14.3555ZM72.0555 24.3164C71.3602 24.3164 71.0125 24 71.0125 23.3672C71.0125 23.2344 71.0281 23.1016 71.0594 22.9688L72.8641 14.4492C72.8797 14.3711 72.8875 14.3086 72.8875 14.2617C72.8875 14.1445 72.8289 14.0859 72.7117 14.0859H72.1844C71.9813 14.0859 71.8797 14.0156 71.8797 13.875C71.8797 13.7266 71.9344 13.6328 72.0438 13.5938C72.1609 13.5547 72.2586 13.5273 72.3367 13.5117C72.4148 13.4961 72.5086 13.4688 72.618 13.4297C72.7352 13.3828 72.8875 13.2891 73.075 13.1484C73.2625 13 73.45 12.832 73.6375 12.6445C73.8328 12.4492 74.0242 12.2461 74.2117 12.0352C74.3992 11.8242 74.575 11.6172 74.7391 11.4141C75.1609 10.9062 75.4227 10.6016 75.5242 10.5C75.6961 10.5391 75.8328 10.6016 75.9344 10.6875C75.8719 10.8516 75.7898 11.043 75.6883 11.2617C75.5867 11.4805 75.4891 11.7031 75.3953 11.9297C75.1531 12.4844 75.0125 12.8906 74.9734 13.1484V13.1953C74.9734 13.3672 75.0672 13.4531 75.2547 13.4531H76.7781L76.6492 14.0859H74.95C74.7391 14.0859 74.6063 14.2227 74.5516 14.4961L72.9227 22.1133C72.8836 22.2773 72.8563 22.4102 72.8406 22.5117C72.825 22.6055 72.8094 22.6797 72.7938 22.7344C72.7859 22.7891 72.782 22.8281 72.782 22.8516V22.8984C72.782 23.0781 72.868 23.168 73.0398 23.168C73.3367 23.168 73.6688 22.9844 74.0359 22.6172L75.3367 21.3164L75.5008 21.4922C75.3914 21.8281 74.95 22.3516 74.1766 23.0625C73.2938 23.8984 72.5867 24.3164 72.0555 24.3164ZM81.5289 23.625C81.5289 23.5625 81.5641 23.5312 81.6344 23.5312H81.9625C82.6734 23.5312 83.2828 23.3359 83.7906 22.9453C84.1812 22.6562 84.4195 22.3047 84.5055 21.8906L87.2711 8.91797C87.2789 8.89453 87.2828 8.86328 87.2828 8.82422C87.2828 8.66797 87.1617 8.58984 86.9195 8.58984H83.4742C82.8883 8.58984 82.3531 8.87109 81.8687 9.43359C81.4 9.98828 81.1109 10.6016 81.0016 11.2734C80.9781 11.3906 80.9469 11.4531 80.9078 11.4609C80.8766 11.4688 80.8531 11.4727 80.8375 11.4727H80.568C80.5133 11.4727 80.4859 11.4453 80.4859 11.3906C80.8531 9.57812 81.0953 8.40625 81.2125 7.875L81.318 7.37109C81.357 7.13672 81.4586 7.01953 81.6227 7.01953C81.6773 7.01953 81.7242 7.04297 81.7633 7.08984C81.8102 7.13672 81.8648 7.1875 81.9273 7.24219C82.0914 7.39844 82.3297 7.47656 82.6422 7.47656H94.9586C95.2867 7.47656 95.4977 7.42578 95.5914 7.32422C95.693 7.21484 95.7633 7.13672 95.8023 7.08984C95.8414 7.04297 95.9 7.01953 95.9781 7.01953C96.1812 7.01953 96.2828 7.10938 96.2828 7.28906C96.2828 7.32031 96.2516 7.46875 96.1891 7.73438C96.0406 8.45312 95.8141 9.55469 95.5094 11.0391L95.4391 11.3555C95.4312 11.4336 95.3883 11.4727 95.3102 11.4727H95.1578C95.0484 11.4727 94.9508 11.1953 94.8648 10.6406C94.7789 10.0781 94.6969 9.67578 94.6187 9.43359C94.4234 8.87109 94.1148 8.58984 93.693 8.58984H90.0016C89.9 8.58984 89.8102 8.60547 89.732 8.63672C89.6539 8.66016 89.5953 8.75391 89.5562 8.91797C89.2125 10.543 88.9078 11.9766 88.6422 13.2188C88.3766 14.4531 88.1461 15.5312 87.9508 16.4531C87.7555 17.3672 87.5914 18.1406 87.4586 18.7734C87.3258 19.4062 87.2125 19.9297 87.1187 20.3438C87.0328 20.75 86.9664 21.0664 86.9195 21.293C86.8727 21.5195 86.8375 21.6875 86.8141 21.7969C86.775 21.9688 86.7555 22.1133 86.7555 22.2305C86.7555 22.3477 86.8375 22.4844 87.0016 22.6406C87.1656 22.7969 87.3648 22.9375 87.5992 23.0625C88.1852 23.375 88.7633 23.5312 89.3336 23.5312H89.6734C89.7359 23.5312 89.7672 23.5625 89.7672 23.625V23.9062C89.7672 23.9688 89.7359 24 89.6734 24H81.6227C81.5602 24 81.5289 23.9688 81.5289 23.9062V23.625ZM97.3633 15.3398L96.7891 15.2461C96.3125 15.2461 95.8203 15.4922 95.3125 15.9844C94.6406 16.6484 94.2109 17.375 94.0234 18.1641C93.9453 18.5078 93.8672 18.8555 93.7891 19.207L92.7812 23.8711C92.6875 23.9102 92.5781 23.957 92.4531 24.0117C92.3359 24.0664 92.2109 24.1172 92.0781 24.1641C91.7578 24.2812 91.5195 24.3398 91.3633 24.3398C91.1602 24.3398 91.0586 24.2109 91.0586 23.9531C91.0586 23.8203 91.1406 23.3711 91.3047 22.6055C91.4688 21.8398 91.6484 21 91.8438 20.0859C92.0391 19.1641 92.1992 18.4062 92.3242 17.8125C92.457 17.2188 92.5547 16.7617 92.6172 16.4414C92.6875 16.1133 92.7422 15.875 92.7812 15.7266C92.8203 15.5391 92.8398 15.4297 92.8398 15.3984C92.8398 15.2656 92.793 15.1992 92.6992 15.1992C92.543 15.1992 92.3867 15.2773 92.2305 15.4336L91.2461 16.3945C91.207 16.4336 91.1719 16.4531 91.1406 16.4531C90.9688 16.4531 90.8828 16.3711 90.8828 16.207C90.8828 16.0508 91.0625 15.8086 91.4219 15.4805C91.7812 15.1445 92.0703 14.8789 92.2891 14.6836C92.5156 14.4883 92.6836 14.3398 92.793 14.2383C92.9102 14.1367 93.0195 14.043 93.1211 13.957C93.2305 13.8711 93.3438 13.7891 93.4609 13.7109C93.75 13.5312 93.9805 13.4414 94.1523 13.4414C94.4102 13.4805 94.5391 13.7539 94.5391 14.2617L94.3984 15.8438C94.3984 16.0078 94.4531 16.0898 94.5625 16.0898C94.625 16.0898 94.7734 15.9297 95.0078 15.6094C95.25 15.2812 95.4375 15.0391 95.5703 14.8828C95.7109 14.7188 95.8555 14.5508 96.0039 14.3789C96.1523 14.207 96.3125 14.0547 96.4844 13.9219C96.8828 13.6016 97.2734 13.4414 97.6562 13.4414C97.8828 13.4414 98.0312 13.625 98.1016 13.9922C98.125 14.0938 98.1367 14.1914 98.1367 14.2852C98.1367 14.9727 97.8789 15.3242 97.3633 15.3398ZM100.6 14.4844L98.8539 22.9219C98.8539 23.0938 98.9477 23.1797 99.1352 23.1797C99.4477 23.1797 99.9984 22.7656 100.787 21.9375C100.873 21.8516 100.936 21.7891 100.975 21.75L101.198 21.9727C101.057 22.2539 100.745 22.5938 100.26 22.9922C99.7758 23.3906 99.4203 23.6641 99.1937 23.8125C98.6937 24.1484 98.2953 24.3164 97.9984 24.3164C97.7094 24.3164 97.4906 24.2109 97.3422 24C97.1937 23.7812 97.1195 23.5938 97.1195 23.4375C97.1195 23.2188 97.1391 23.0273 97.1781 22.8633L98.8656 14.9062V14.8594C98.8656 14.6875 98.768 14.6016 98.5727 14.6016C98.2367 14.6016 97.725 14.9727 97.0375 15.7148C96.8969 15.8711 96.7953 15.9766 96.7328 16.0312L96.5102 15.8086C96.6664 15.5039 97.1078 15.0547 97.8344 14.4609C98.6703 13.7891 99.2641 13.4531 99.6156 13.4531C99.9672 13.4531 100.217 13.5625 100.366 13.7812C100.522 13.9922 100.6 14.2266 100.6 14.4844ZM100.12 10.3945C100.026 10.2539 99.9633 10.1328 99.932 10.0312C99.9086 9.92188 99.8969 9.80469 99.8969 9.67969C99.8969 9.55469 99.9203 9.375 99.9672 9.14062C100.022 8.90625 100.1 8.67969 100.202 8.46094C100.436 7.94531 100.745 7.6875 101.127 7.6875C101.479 7.6875 101.709 7.88281 101.819 8.27344C101.85 8.38281 101.866 8.5 101.866 8.625C101.866 8.75 101.834 8.92578 101.772 9.15234C101.709 9.37891 101.623 9.60156 101.514 9.82031C101.233 10.3359 100.92 10.5938 100.577 10.5938C100.373 10.5938 100.221 10.5273 100.12 10.3945ZM107.528 23.1445C107.106 23.5117 106.63 23.7969 106.098 24C105.567 24.2109 105.012 24.3164 104.434 24.3164C103.856 24.3164 103.294 24.1719 102.747 23.8828L101.516 29.6953C101.485 29.8203 101.47 29.9219 101.47 30C101.47 30.3594 101.645 30.5977 101.997 30.7148C102.356 30.832 102.868 30.8906 103.532 30.8906L103.45 31.2656H97.7195L97.8016 30.8906C98.575 30.8906 99.1258 30.6719 99.4539 30.2344C99.7039 29.8906 99.9344 29.2227 100.145 28.2305L102.841 15.5742V15.5273C102.841 15.3086 102.751 15.1992 102.571 15.1992C102.454 15.1992 102.259 15.3398 101.985 15.6211C101.712 15.8945 101.352 16.2578 100.907 16.7109L100.626 16.418C100.798 16.082 101.438 15.4531 102.548 14.5312C103.415 13.8125 104.02 13.4531 104.364 13.4531C104.458 13.4531 104.559 13.4883 104.669 13.5586C104.778 13.6211 104.833 13.7148 104.833 13.8398C104.833 14.0586 104.77 14.4375 104.645 14.9766L104.305 16.4883C104.298 16.5117 104.294 16.5469 104.294 16.5938C104.294 16.7266 104.337 16.793 104.423 16.793C104.54 16.793 104.649 16.75 104.751 16.6641C104.852 16.5781 105.001 16.4375 105.196 16.2422C105.399 16.0469 105.622 15.832 105.864 15.5977C106.114 15.3555 106.376 15.1094 106.649 14.8594C106.923 14.6016 107.192 14.3672 107.458 14.1562C108.052 13.6875 108.489 13.4531 108.77 13.4531C109.059 13.4531 109.294 13.5703 109.473 13.8047C109.661 14.0391 109.805 14.3203 109.907 14.6484C110.079 15.1953 110.165 15.7969 110.165 16.4531C110.165 17.1016 110.106 17.7461 109.989 18.3867C109.88 19.0273 109.712 19.6406 109.485 20.2266C109.266 20.8047 108.993 21.3438 108.665 21.8438C108.337 22.3438 107.958 22.7773 107.528 23.1445ZM107.856 20.0508C108.067 19.5117 108.231 18.9492 108.348 18.3633C108.473 17.7695 108.536 17.2812 108.536 16.8984C108.536 16.5156 108.528 16.2188 108.512 16.0078C108.497 15.7969 108.458 15.5977 108.395 15.4102C108.239 14.9727 107.95 14.7539 107.528 14.7539C107.114 14.9648 106.677 15.3047 106.216 15.7734C105.762 16.2344 105.372 16.6367 105.044 16.9805C104.723 17.3164 104.372 17.6719 103.989 18.0469L103.145 22.0312C103.114 22.1562 103.098 22.2891 103.098 22.4297C103.098 22.5703 103.118 22.7227 103.157 22.8867C103.204 23.0508 103.278 23.2031 103.38 23.3438C103.63 23.6719 103.95 23.8359 104.341 23.8359C104.739 23.8359 105.091 23.7422 105.395 23.5547C105.7 23.3594 106.001 23.0938 106.298 22.7578C106.595 22.4141 106.876 22.0117 107.141 21.5508C107.415 21.0898 107.653 20.5898 107.856 20.0508Z" fill="black"/>
<path d="M30 7C30.2652 7.0112 30.5196 6.91566 30.7071 6.72794C30.8946 6.54059 31 6.27642 31 6C31 5.72358 30.8946 5.45941 30.7071 5.27206C30.5196 5.08434 30.2652 4.9888 30 5C29.6 5.01667 29.2 5.03333 28.8 5.05C21.6 5.35 14.4 5.65 7.2 5.95C6.8 5.96667 6.4 5.98333 6 6C6.4 6.01667 6.8 6.03333 7.2 6.05C14.4 6.35 21.6 6.65 28.8 6.95C29.2 6.96667 29.6 6.98333 30 7Z" fill="black"/>
<path d="M27 16.5C27.2652 16.5112 27.5196 16.4157 27.7071 16.2279C27.8946 16.0406 28 15.7764 28 15.5C28 15.2236 27.8946 14.9594 27.7071 14.7721C27.5196 14.5843 27.2652 14.4888 27 14.5C26.6 14.5167 26.2 14.5333 25.8 14.55C18.6 14.85 11.4 15.15 4.2 15.45C3.8 15.4667 3.4 15.4833 3 15.5C3.4 15.5167 3.8 15.5333 4.2 15.55C11.4 15.85 18.6 16.15 25.8 16.45C26.2 16.4667 26.6 16.4833 27 16.5Z" fill="black"/>
<path d="M24 26C24.2652 26.0112 24.5196 25.9157 24.7071 25.7279C24.8946 25.5406 25 25.2764 25 25C25 24.7236 24.8946 24.4594 24.7071 24.2721C24.5196 24.0843 24.2652 23.9888 24 24C23.6 24.0167 23.2 24.0333 22.8 24.05C15.6 24.35 8.4 24.65 1.2 24.95C0.799998 24.9667 0.4 24.9833 0 25C0.4 25.0167 0.799998 25.0333 1.2 25.05C8.4 25.35 15.6 25.65 22.8 25.95C23.2 25.9667 23.6 25.9833 24 26Z" fill="black"/>
</svg>
