<svg width="34" height="30" viewBox="0 0 34 30" fill="#FFFFFF" xmlns="http://www.w3.org/2000/svg">
<path d="M34 30H0V26.6667H1.7V1.66667C1.7 1.22464 1.87911 0.800716 2.19792 0.488155C2.51673 0.175595 2.94913 0 3.4 0H27.2C27.6509 0 28.0833 0.175595 28.4021 0.488155C28.7209 0.800716 28.9 1.22464 28.9 1.66667V10H32.3V26.6667H34V30ZM25.5 26.6667H28.9V13.3333H18.7V26.6667H22.1V16.6667H25.5V26.6667ZM25.5 10V3.33333H5.1V26.6667H15.3V10H25.5ZM8.5 13.3333H11.9V16.6667H8.5V13.3333ZM8.5 20H11.9V23.3333H8.5V20ZM8.5 6.66667H11.9V10H8.5V6.66667Z" fill="white"/>
</svg>
