<svg width="30" height="31" viewBox="0 0 30 31" fill="#FFFFFF" xmlns="http://www.w3.org/2000/svg">
<path d="M4.46582 23.4248C5.65289 24.5417 7.00374 25.4674 8.47461 26.1621C10.369 27.0569 12.4182 27.5489 14.5 27.6152V30.4922C12.0222 30.4251 9.58105 29.8437 7.3252 28.7783C5.06271 27.7098 3.03685 26.1792 1.37012 24.2812L2.22266 23.5303L3.76465 24.001L4.24902 24.1494L4.39062 23.6631C4.41395 23.583 4.43896 23.5034 4.46582 23.4248ZM25.5332 23.4258C25.5602 23.5046 25.586 23.5845 25.6094 23.665L25.751 24.1514L26.2354 24.0029L27.7773 23.5312L28.6309 24.2812C26.9641 26.1789 24.9372 27.7098 22.6748 28.7783C20.4189 29.8437 17.9778 30.4251 15.5 30.4922V27.6152C17.5818 27.5489 19.631 27.0569 21.5254 26.1621C22.9958 25.4676 24.3464 24.5423 25.5332 23.4258ZM1.09863 23.1875L0.791992 23.459L0.724609 23.5176L0.553711 23.3145L0.630859 23.0449L1.09863 23.1875ZM29.4453 23.3145L29.2764 23.5176L28.9824 23.2588L28.9014 23.1875L29.3682 23.0449L29.4453 23.3145ZM26.8955 22.7539L26.8945 22.7549L26.4082 22.9043C26.3756 22.8184 26.3408 22.7335 26.3047 22.6494C26.3752 22.5732 26.4446 22.4957 26.5137 22.418L26.8955 22.7539ZM3.69336 22.6484C3.65744 22.7322 3.62322 22.8169 3.59082 22.9023L3.10449 22.7539H3.10547L3.10449 22.7529L3.48633 22.418C3.55499 22.4952 3.62329 22.5727 3.69336 22.6484ZM8.83789 18.8955C7.68609 18.991 6.58061 19.417 5.65039 20.1279C5.075 20.5677 4.58343 21.1038 4.19336 21.709C4.10067 21.6039 4.00882 21.4976 3.91895 21.3896L3.58984 20.9951L3.2041 21.334L1.98047 22.4111L0.923828 22.0879C1.51726 20.3856 2.58633 18.8985 4.00098 17.8164C5.41019 16.7385 7.0934 16.1156 8.83789 16.0156V18.8955ZM21.1621 16.0156C22.9062 16.116 24.5892 16.7386 25.998 17.8164C27.4125 18.8986 28.4816 20.3862 29.0752 22.0879L28.0195 22.4111L26.7959 21.334L26.4102 20.9951L26.0811 21.3896C25.9905 21.4985 25.8972 21.605 25.8037 21.7109C24.7881 20.1385 23.1045 19.0553 21.1621 18.8955V16.0156ZM20.1621 16V18.875H9.83789V16H20.1621ZM12.6641 6.3125C12.7579 6.7694 12.979 7.19384 13.3076 7.53125C13.6354 7.86769 14.0504 8.09595 14.5 8.19434V11.0996C13.3183 10.9812 12.2045 10.4459 11.3545 9.57324C10.5002 8.69605 9.97417 7.54148 9.86133 6.3125H12.6641ZM20.1387 6.3125C20.0258 7.54148 19.4998 8.69605 18.6455 9.57324C17.7955 10.4459 16.6817 10.9812 15.5 11.0996V8.19434C15.9496 8.09595 16.3646 7.86769 16.6924 7.53125C17.021 7.19384 17.2421 6.7694 17.3359 6.3125H20.1387ZM15.5 0.524414C16.6818 0.642758 17.7954 1.17907 18.6455 2.05176C19.4998 2.92895 20.0258 4.08352 20.1387 5.3125H17.3359C17.2421 4.8556 17.021 4.43116 16.6924 4.09375C16.3646 3.75726 15.9496 3.52805 15.5 3.42969V0.524414ZM14.5 3.42969C14.0504 3.52805 13.6354 3.75726 13.3076 4.09375C12.979 4.43116 12.7579 4.8556 12.6641 5.3125H9.86133C9.97417 4.08352 10.5002 2.92895 11.3545 2.05176C12.2046 1.17907 13.3182 0.642757 14.5 0.524414V3.42969Z" fill="white" stroke="white"/>
</svg>
