<svg width="29" height="29" viewBox="0 0 29 29" fill="none" xmlns="http://www.w3.org/2000/svg">
<path d="M0 29V6.44444H6.44444V0H22.5556V12.8889H29V29H16.1111V22.5556H12.8889V29H0ZM3.22222 25.7778H6.44444V22.5556H3.22222V25.7778ZM3.22222 19.3333H6.44444V16.1111H3.22222V19.3333ZM3.22222 12.8889H6.44444V9.66667H3.22222V12.8889ZM9.66667 19.3333H12.8889V16.1111H9.66667V19.3333ZM9.66667 12.8889H12.8889V9.66667H9.66667V12.8889ZM9.66667 6.44444H12.8889V3.22222H9.66667V6.44444ZM16.1111 19.3333H19.3333V16.1111H16.1111V19.3333ZM16.1111 12.8889H19.3333V9.66667H16.1111V12.8889ZM16.1111 6.44444H19.3333V3.22222H16.1111V6.44444ZM22.5556 25.7778H25.7778V22.5556H22.5556V25.7778ZM22.5556 19.3333H25.7778V16.1111H22.5556V19.3333Z" fill="black"/>
</svg>
