<svg width="35" height="35" viewBox="0 0 35 35" fill="none" xmlns="http://www.w3.org/2000/svg">
<path fill-rule="evenodd" clip-rule="evenodd" d="M25.1903 2.64771C26.0444 2.64771 26.8635 2.98699 27.4675 3.59092C28.0714 4.19485 28.4107 5.01395 28.4107 5.86804V7.4782H30.0208C30.4479 7.4782 30.8574 7.64785 31.1594 7.94981C31.4614 8.25178 31.631 8.66133 31.631 9.08837C31.631 9.51541 31.4614 9.92496 31.1594 10.2269C30.8574 10.5289 30.4479 10.6985 30.0208 10.6985V28.4104C30.4479 28.4104 30.8574 28.58 31.1594 28.882C31.4614 29.1839 31.631 29.5935 31.631 30.0205C31.631 30.4476 31.4614 30.8571 31.1594 31.1591C30.8574 31.4611 30.4479 31.6307 30.0208 31.6307H19.5548V24.385C19.5548 23.7444 19.3003 23.1301 18.8474 22.6771C18.3944 22.2242 17.7801 21.9697 17.1395 21.9697C16.499 21.9697 15.8846 22.2242 15.4317 22.6771C14.9787 23.1301 14.7243 23.7444 14.7243 24.385V31.6307H4.25819C3.83114 31.6307 3.42159 31.4611 3.11963 31.1591C2.81766 30.8571 2.64802 30.4476 2.64802 30.0205C2.64802 29.5935 2.81766 29.1839 3.11963 28.882C3.42159 28.58 3.83114 28.4104 4.25819 28.4104V10.6985C3.83114 10.6985 3.42159 10.5289 3.11963 10.2269C2.81766 9.92496 2.64802 9.51541 2.64802 9.08837C2.64802 8.66133 2.81766 8.25178 3.11963 7.94981C3.42159 7.64785 3.83114 7.4782 4.25819 7.4782H5.86835V5.86804C5.86835 5.01395 6.20764 4.19485 6.81157 3.59092C7.4155 2.98699 8.2346 2.64771 9.08869 2.64771H25.1903ZM10.6989 18.7494C10.2718 18.7494 9.86226 18.919 9.56029 19.221C9.25833 19.5229 9.08869 19.9325 9.08869 20.3595V21.9697C9.08869 22.3967 9.25833 22.8063 9.56029 23.1083C9.86226 23.4102 10.2718 23.5799 10.6989 23.5799C11.1259 23.5799 11.5354 23.4102 11.8374 23.1083C12.1394 22.8063 12.309 22.3967 12.309 21.9697V20.3595C12.309 19.9325 12.1394 19.5229 11.8374 19.221C11.5354 18.919 11.1259 18.7494 10.6989 18.7494ZM23.5802 18.7494C23.1858 18.7494 22.8051 18.8942 22.5104 19.1563C22.2157 19.4184 22.0274 19.7795 21.9813 20.1711L21.97 20.3595V21.9697C21.9705 22.3801 22.1276 22.7748 22.4093 23.0733C22.6911 23.3717 23.0761 23.5513 23.4858 23.5753C23.8955 23.5994 24.2989 23.4661 24.6136 23.2027C24.9284 22.9393 25.1306 22.5656 25.1791 22.1581L25.1903 21.9697V20.3595C25.1903 19.9325 25.0207 19.5229 24.7187 19.221C24.4168 18.919 24.0072 18.7494 23.5802 18.7494ZM10.6989 12.3087C10.3045 12.3088 9.92382 12.4535 9.6291 12.7156C9.33439 12.9777 9.1461 13.3388 9.09996 13.7305L9.08869 13.9189V15.529C9.08914 15.9394 9.24629 16.3342 9.52802 16.6326C9.80975 16.931 10.1948 17.1106 10.6045 17.1346C11.0142 17.1587 11.4176 17.0254 11.7323 16.762C12.047 16.4986 12.2493 16.125 12.2977 15.7174L12.309 15.529V13.9189C12.309 13.4918 12.1394 13.0823 11.8374 12.7803C11.5354 12.4783 11.1259 12.3087 10.6989 12.3087ZM17.1395 12.3087C16.7451 12.3088 16.3645 12.4535 16.0698 12.7156C15.7751 12.9777 15.5868 13.3388 15.5406 13.7305L15.5294 13.9189V15.529C15.5298 15.9394 15.687 16.3342 15.9687 16.6326C16.2504 16.931 16.6355 17.1106 17.0452 17.1346C17.4548 17.1587 17.8583 17.0254 18.173 16.762C18.4877 16.4986 18.6899 16.125 18.7384 15.7174L18.7497 15.529V13.9189C18.7497 13.4918 18.58 13.0823 18.2781 12.7803C17.9761 12.4783 17.5666 12.3087 17.1395 12.3087ZM23.5802 12.3087C23.1531 12.3087 22.7436 12.4783 22.4416 12.7803C22.1397 13.0823 21.97 13.4918 21.97 13.9189V15.529C21.97 15.9561 22.1397 16.3656 22.4416 16.6676C22.7436 16.9696 23.1531 17.1392 23.5802 17.1392C24.0072 17.1392 24.4168 16.9696 24.7187 16.6676C25.0207 16.3656 25.1903 15.9561 25.1903 15.529V13.9189C25.1903 13.4918 25.0207 13.0823 24.7187 12.7803C24.4168 12.4783 24.0072 12.3087 23.5802 12.3087ZM25.1903 5.86804H9.08869V7.4782H25.1903V5.86804Z" fill="black"/>
</svg>
