<svg width="29" height="32" viewBox="0 0 29 32" fill="none" xmlns="http://www.w3.org/2000/svg">
<g clip-path="url(#clip0_138_997)">
<path d="M1.65827 6.60811L1.44736 8.15744L2.93691 7.73611L3.51823 9.18678L4.59914 8.06944L5.81977 9.02944L6.20468 7.51611L7.73641 7.72944L7.31986 6.22277L8.75404 5.63611L7.64941 4.54278L8.5985 3.30811L7.10236 2.91877L7.31327 1.36944L5.82373 1.79077L5.24241 0.340108L4.15491 1.45744L2.93427 0.497441L2.54936 2.01077L1.01764 1.79744L1.43418 3.30411L0 3.89211L1.10464 4.98544L0.155545 6.22011L1.65827 6.60811ZM3.54195 2.30677C4.02132 2.14154 4.53831 2.12353 5.02778 2.25502C5.51725 2.3865 5.95729 2.66159 6.29245 3.04562C6.62761 3.42965 6.84288 3.90544 6.91114 4.41302C6.97941 4.9206 6.8976 5.43726 6.67604 5.8979C6.45448 6.35853 6.10308 6.74252 5.66612 7.00148C5.22916 7.26043 4.7262 7.38276 4.22061 7.35306C3.71503 7.32335 3.22945 7.14293 2.82507 6.83454C2.4207 6.52615 2.11561 6.10359 1.94827 5.62011L1.943 5.60144C1.7245 4.95351 1.76802 4.24449 2.06406 3.62887C2.3601 3.01324 2.88468 2.54091 3.5235 2.31477L3.54195 2.30944V2.30677ZM6.18359 27.4428C6.25326 27.4427 6.32222 27.4286 6.38647 27.4013C6.45073 27.3741 6.50901 27.3343 6.55795 27.2841L6.88223 26.9454C7.45432 26.3494 8.25314 25.9801 9.13764 25.9801C10.0221 25.9801 10.821 26.3494 11.393 26.9454L11.3944 26.9468L11.7265 27.2908C11.7755 27.3409 11.8338 27.3808 11.898 27.408C11.9623 27.4352 12.0312 27.4493 12.1009 27.4494C12.2459 27.4494 12.379 27.3881 12.4713 27.2908L12.822 26.9308C13.1146 26.6288 13.4639 26.3891 13.8494 26.2256C14.2349 26.0621 14.6488 25.9782 15.0668 25.9788C15.954 25.9788 16.7567 26.3508 17.3288 26.9481L17.3301 26.9494L17.6465 27.2774C17.6949 27.3283 17.7529 27.3689 17.817 27.3967C17.8812 27.4246 17.9502 27.4391 18.02 27.4395C18.0898 27.4399 18.159 27.4261 18.2235 27.3989C18.2879 27.3718 18.3463 27.3318 18.3952 27.2814L18.7169 26.9454C19.289 26.3494 20.0878 25.9801 20.9723 25.9801C21.8568 25.9801 22.6556 26.3494 23.2277 26.9454L23.229 26.9468L23.5585 27.2854C23.6066 27.3371 23.6646 27.3783 23.729 27.4064C23.7934 27.4345 23.8628 27.4491 23.9329 27.4491C24.003 27.4491 24.0724 27.4345 24.1368 27.4064C24.2012 27.3783 24.2592 27.3371 24.3073 27.2854L24.6315 26.9468C24.846 26.7272 25.0868 26.5414 25.3539 26.3894L25.3697 26.3814C23.7198 24.8478 21.7906 23.6536 19.6897 22.8654L19.5697 22.8268C18.6813 18.9921 19.4643 13.9548 20.6849 10.1454C20.7122 10.117 20.7376 10.0886 20.7614 10.0601C21.7433 10.3019 22.6166 10.8698 23.2416 11.6731C23.8665 12.4764 24.207 13.4686 24.2084 14.4908C24.2084 15.6348 23.7919 16.6801 23.1038 17.4801L23.109 17.4748L23.2053 17.4761C24.4002 17.4761 25.5462 16.996 26.3912 16.1413C27.2361 15.2866 27.7108 14.1275 27.7108 12.9188C27.7108 11.7101 27.2361 10.5509 26.3912 9.69625C25.5462 8.84159 24.4002 8.36144 23.2053 8.36144L23.059 8.36411H23.0655C23.4096 8.26411 23.8077 8.19477 24.219 8.17077H24.2335C25.0967 8.10116 25.9627 8.2653 26.7425 8.64632C27.5223 9.02734 28.1878 9.6115 28.6705 10.3388L28.681 10.3561C28.9509 9.78895 29.0747 9.16197 29.0409 8.53344V8.54278C28.8897 7.34676 28.2772 6.25971 27.3369 5.51864C26.3966 4.77757 25.2047 4.4426 24.0212 4.58677L24.0423 4.58411C23.7468 4.6 23.4531 4.64104 23.1644 4.70677L23.1987 4.70011L23.2 4.58544C23.2 4.25922 23.1697 3.94277 23.109 3.63611L23.1143 3.66677C22.9774 2.57956 22.4204 1.59139 21.5653 0.918302C20.7102 0.24521 19.6263 -0.0580645 18.5508 0.0747747L18.5705 0.0734414C17.9905 0.190775 17.4804 0.442775 17.0573 0.796108L17.0625 0.792108C17.6795 1.01124 18.2395 1.36865 18.7006 1.8376C19.1617 2.30655 19.512 2.87489 19.7253 3.50011L19.7345 3.53077C19.3597 3.21855 18.9505 2.95101 18.5152 2.73344L18.4783 2.71611C15.8063 1.40411 12.764 2.16011 11.683 4.41078C11.3887 5.02329 11.2596 5.70357 11.3087 6.38278L11.3074 6.37077C12.1816 5.82106 13.1912 5.53134 14.2205 5.53477C15.167 5.53477 16.0594 5.77477 16.8385 6.19744L16.8081 6.18278C17.2105 6.38258 17.5917 6.62338 17.9457 6.90144L17.9312 6.89078C16.8883 6.46175 15.7316 6.40712 14.6538 6.73596C13.5759 7.0648 12.642 7.75728 12.0075 8.69802C11.3731 9.63877 11.0765 10.771 11.1671 11.9061C11.2578 13.0411 11.7301 14.1105 12.5056 14.9361L12.503 14.9334C12.9894 15.4508 13.5839 15.8614 14.2495 16.1268L14.2825 16.1388C14.0225 15.346 13.9638 14.4998 14.1118 13.6781C14.2599 12.8563 14.6098 12.0854 15.1296 11.4364C15.6493 10.7873 16.3221 10.2809 17.086 9.96373C17.85 9.64657 18.6805 9.52886 19.5012 9.62144L19.4788 9.61878C16.7923 14.8214 15.1802 18.8801 14.9113 22.0068H14.8454C13.5271 22.0079 12.2155 22.1959 10.9488 22.5654L11.049 22.5401C9.55606 20.9821 8.43594 19.0988 7.77464 17.0348L7.74695 16.9348C7.7452 16.9126 7.74783 16.8926 7.75486 16.8748C8.13511 16.7118 8.55047 16.6507 8.96085 16.6975C9.37123 16.7443 9.76275 16.8973 10.0976 17.1418C10.4325 17.3862 10.6993 17.7139 10.8725 18.0932C11.0456 18.4724 11.1191 18.8904 11.0859 19.3068V19.2988C11.3445 19.1098 11.5633 18.8705 11.7295 18.595C11.8957 18.3195 12.006 18.0133 12.0539 17.6942C12.1017 17.3751 12.0863 17.0496 12.0084 16.7366C11.9305 16.4237 11.7918 16.1295 11.6002 15.8714C11.4087 15.6133 11.1683 15.3964 10.8929 15.2333C10.6176 15.0702 10.3129 14.9642 9.99662 14.9216C9.68035 14.879 9.35885 14.9005 9.0509 14.985C8.74295 15.0694 8.45472 15.2151 8.20304 15.4134L8.20832 15.4094C8.33667 15.2437 8.48156 15.0918 8.64068 14.9561L8.64595 14.9521C9.11855 14.5331 9.7259 14.3028 10.3543 14.3041C10.6707 14.3041 10.9752 14.3614 11.256 14.4668L11.2375 14.4614C11.1747 14.131 11.0306 13.8219 10.8183 13.5628L10.821 13.5654C10.5969 13.3285 10.3276 13.1399 10.0295 13.0111C9.7313 12.8823 9.41043 12.816 9.08623 12.8161C8.44823 12.8161 7.86823 13.0681 7.4385 13.4788L7.43982 13.4774C7.32294 13.577 7.21573 13.6828 7.11818 13.7948L7.11554 13.7974C7.01036 13.648 6.89021 13.5099 6.757 13.3854L6.75568 13.3841C6.55213 13.1687 6.30743 12.9973 6.03642 12.8804C5.76541 12.7635 5.47375 12.7035 5.17914 12.7041C4.62292 12.7032 4.08752 12.918 3.683 13.3041L3.68432 13.3028C3.48659 13.5201 3.34027 13.7868 3.26514 14.0828L3.2625 14.0948C3.59959 13.9878 3.95664 13.9615 4.3055 14.018C4.65435 14.0744 4.98547 14.2121 5.27273 14.4201L5.26614 14.4148C4.99314 14.4023 4.71966 14.4229 4.4515 14.4761L4.47259 14.4721C3.77708 14.5453 3.13795 14.8923 2.69325 15.4382C2.24856 15.984 2.034 16.6849 2.09591 17.3894L2.09459 17.3788C2.16577 17.7494 2.32527 18.0748 2.552 18.3414L2.54936 18.3388C2.94086 17.3654 3.79636 16.6588 4.83114 16.4948L4.84827 16.4921C5.08119 16.445 5.31878 16.4258 5.55614 16.4348H5.55086C4.87858 16.6174 4.30555 17.0627 3.95786 17.6727C3.61016 18.2827 3.51627 19.0074 3.69684 19.6874C3.87741 20.3675 4.31765 20.9471 4.92071 21.2988C5.52377 21.6505 6.24026 21.7454 6.91255 21.5628L6.89409 21.5668C6.48516 21.2745 6.16695 20.8706 5.9767 20.4021C5.78645 19.9336 5.73202 19.4201 5.81977 18.9214L5.81714 18.9374C5.88183 18.5608 6.0266 18.2029 6.24145 17.8885C6.45629 17.574 6.73609 17.3105 7.0615 17.1161L7.07336 17.1094C7.32103 19.3364 7.90566 21.5115 8.80677 23.5588L8.75141 23.4188C7.14122 24.1898 5.65269 25.1976 4.33418 26.4094L4.34868 26.3961C4.91418 26.5908 5.39532 26.9041 5.7855 27.3081L5.78682 27.3094C5.89949 27.3961 6.03676 27.4438 6.17832 27.4454L6.18359 27.4428Z" fill="black"/>
<path d="M1.58439 28.8133C1.65728 28.8129 1.72939 28.798 1.79657 28.7694C1.86376 28.7408 1.9247 28.6991 1.97589 28.6466C2.13848 28.477 2.33307 28.3421 2.54813 28.25C2.76318 28.1579 2.99433 28.1103 3.22789 28.1102C3.46144 28.1101 3.69264 28.1574 3.90779 28.2493C4.12294 28.3412 4.31767 28.4758 4.48044 28.6453C4.91412 29.0946 5.51785 29.3733 6.18748 29.3733C6.85712 29.3733 7.46085 29.0946 7.89321 28.6453L8.21748 28.3093C8.33789 28.1839 8.48194 28.0842 8.64112 28.0161C8.80029 27.948 8.97135 27.913 9.14417 27.913C9.31698 27.913 9.48804 27.948 9.64721 28.0161C9.80639 28.0842 9.95044 28.1839 10.0708 28.3093L10.403 28.6533C10.8354 29.1039 11.4391 29.3826 12.1088 29.3826C12.7731 29.3826 13.3755 29.1066 13.8066 28.6613L14.1598 28.3013C14.2801 28.1765 14.424 28.0775 14.5828 28.01C14.7417 27.9426 14.9123 27.9082 15.0846 27.9088C15.2569 27.9095 15.4273 27.9451 15.5857 28.0137C15.7441 28.0822 15.8872 28.1823 16.0066 28.3079L16.323 28.6359C16.7527 29.0893 17.3578 29.3719 18.0274 29.3719H18.0313C18.701 29.3719 19.3047 29.0906 19.7358 28.6399L19.7371 28.6386L20.0587 28.3053C20.1791 28.1799 20.3232 28.0802 20.4823 28.0121C20.6415 27.944 20.8126 27.909 20.9854 27.909C21.1582 27.909 21.3293 27.944 21.4884 28.0121C21.6476 28.0802 21.7917 28.1799 21.9121 28.3053L22.2363 28.6413C22.6687 29.0906 23.2724 29.3693 23.9408 29.3693C24.6091 29.3693 25.2128 29.0906 25.6452 28.6413L25.9708 28.3013C26.0912 28.1759 26.2352 28.0762 26.3944 28.0081C26.5536 27.94 26.7246 27.905 26.8974 27.905C27.0703 27.905 27.2413 27.94 27.4005 28.0081C27.5597 28.0762 27.7037 28.1759 27.8241 28.3013C27.8746 28.3545 27.9351 28.3969 28.0022 28.4258C28.0692 28.4547 28.1414 28.4697 28.2143 28.4697C28.2872 28.4697 28.3594 28.4547 28.4264 28.4258C28.4935 28.3969 28.554 28.3545 28.6045 28.3013C28.7084 28.192 28.7664 28.0462 28.7664 27.8946C28.7664 27.743 28.7084 27.5972 28.6045 27.4879C28.3829 27.2568 28.1177 27.0731 27.8247 26.9476C27.5316 26.8221 27.2166 26.7573 26.8984 26.7572C26.5801 26.7571 26.2651 26.8216 25.9719 26.9469C25.6788 27.0722 25.4135 27.2557 25.1917 27.4866L24.8674 27.8253C24.747 27.9507 24.603 28.0503 24.4438 28.1184C24.2846 28.1865 24.1136 28.2216 23.9408 28.2216C23.7679 28.2216 23.5969 28.1865 23.4377 28.1184C23.2785 28.0503 23.1345 27.9507 23.0141 27.8253L22.6898 27.4866C22.4682 27.2555 22.2031 27.0718 21.91 26.9463C21.6169 26.8207 21.3019 26.756 20.9837 26.7559C20.6654 26.7557 20.3504 26.8202 20.0572 26.9455C19.7641 27.0708 19.4988 27.2544 19.277 27.4853L18.9554 27.8186C18.8347 27.9437 18.6905 28.0431 18.5311 28.1108C18.3718 28.1786 18.2007 28.2133 18.0279 28.2129C17.8551 28.2125 17.6841 28.1771 17.525 28.1087C17.366 28.0402 17.2222 27.9403 17.102 27.8146L16.7857 27.4866C16.5657 27.2545 16.3019 27.0696 16.0098 26.9428C15.7178 26.816 15.4035 26.7499 15.0857 26.7486C14.7678 26.7472 14.453 26.8105 14.1599 26.9348C13.8667 27.0591 13.6014 27.2417 13.3795 27.4719L13.0288 27.8319C12.9081 27.9559 12.7641 28.0542 12.6053 28.1211C12.4465 28.188 12.2761 28.2221 12.1041 28.2215C11.9321 28.2209 11.7619 28.1855 11.6036 28.1174C11.4452 28.0494 11.3019 27.9501 11.1821 27.8253L10.8499 27.4813C10.4162 27.0319 9.81248 26.7533 9.14285 26.7533C8.47321 26.7533 7.86948 27.0319 7.43712 27.4813L7.11285 27.8173C6.99273 27.9423 6.84909 28.0417 6.6904 28.1097C6.5317 28.1777 6.36115 28.2129 6.1888 28.2133H6.18221C6.01073 28.2132 5.84102 28.1782 5.68318 28.1104C5.52534 28.0426 5.38259 27.9433 5.26344 27.8186C4.74803 27.2813 4.0283 26.9479 3.2308 26.9479C2.4333 26.9479 1.71357 27.2813 1.19948 27.8173L1.19816 27.8186C1.09443 27.9281 1.03662 28.0739 1.03687 28.2255C1.03711 28.3772 1.09539 28.5228 1.19948 28.6319C1.24851 28.6873 1.30843 28.7316 1.37539 28.7621C1.44236 28.7927 1.51489 28.8087 1.58835 28.8093L1.58439 28.8133Z" fill="black"/>
<path d="M28.5993 30.1121C28.3777 29.881 28.1125 29.6972 27.8195 29.5717C27.5264 29.4462 27.2114 29.3815 26.8932 29.3813C26.5749 29.3812 26.2599 29.4457 25.9667 29.571C25.6735 29.6963 25.4082 29.8798 25.1865 30.1107L24.8622 30.4494C24.7418 30.5748 24.5978 30.6745 24.4386 30.7425C24.2794 30.8106 24.1083 30.8457 23.9355 30.8457C23.7627 30.8457 23.5917 30.8106 23.4325 30.7425C23.2733 30.6745 23.1293 30.5748 23.0088 30.4494L22.6833 30.1094C22.4617 29.8783 22.1965 29.6946 21.9035 29.5691C21.6104 29.4435 21.2954 29.3788 20.9771 29.3787C20.6589 29.3786 20.3439 29.443 20.0507 29.5683C19.7575 29.6936 19.4922 29.8772 19.2705 30.1081L18.9488 30.4414C18.8282 30.5665 18.6839 30.6659 18.5246 30.7336C18.3653 30.8014 18.1941 30.8361 18.0213 30.8357C17.8485 30.8353 17.6775 30.7999 17.5185 30.7315C17.3595 30.663 17.2156 30.5631 17.0955 30.4374L16.7791 30.1094C16.5592 29.8773 16.2953 29.6924 16.0033 29.5656C15.7112 29.4388 15.3969 29.3727 15.0791 29.3714C14.7613 29.37 14.4464 29.4333 14.1533 29.5576C13.8602 29.6819 13.5948 29.8645 13.3729 30.0947L13.0223 30.4547C12.9016 30.5787 12.7576 30.677 12.5988 30.7439C12.44 30.8108 12.2696 30.8449 12.0975 30.8443C11.9255 30.8437 11.7553 30.8083 11.597 30.7402C11.4387 30.6722 11.2954 30.5729 11.1755 30.4481L10.8433 30.1041C10.6218 29.873 10.3566 29.6892 10.0635 29.5637C9.77048 29.4382 9.45549 29.3735 9.13724 29.3733C8.81899 29.3732 8.50395 29.4377 8.21079 29.563C7.91763 29.6883 7.65232 29.8718 7.43058 30.1027L7.1063 30.4414C6.9859 30.5668 6.84185 30.6665 6.68267 30.7345C6.5235 30.8026 6.35244 30.8377 6.17962 30.8377C6.00681 30.8377 5.83575 30.8026 5.67657 30.7345C5.5174 30.6665 5.37334 30.5668 5.25294 30.4414C4.73753 29.9041 4.0178 29.5707 3.2203 29.5707C2.4228 29.5707 1.70308 29.9041 1.18898 30.4401L1.18767 30.4414C1.08393 30.5509 1.02612 30.6967 1.02637 30.8483C1.02661 31 1.08489 31.1456 1.18898 31.2547C1.23929 31.3086 1.29988 31.3515 1.36708 31.3809C1.43428 31.4103 1.50669 31.4256 1.57992 31.4259C1.65315 31.4261 1.72566 31.4113 1.79305 31.3824C1.86045 31.3534 1.92133 31.3109 1.97198 31.2574C2.13457 31.0878 2.32916 30.9529 2.54422 30.8608C2.75927 30.7687 2.99043 30.7211 3.22398 30.721C3.45753 30.7209 3.68873 30.7682 3.90388 30.8601C4.11904 30.952 4.31376 31.0866 4.47653 31.2561C4.91021 31.7054 5.51394 31.9841 6.18358 31.9841C6.85321 31.9841 7.45694 31.7054 7.8893 31.2561L8.21358 30.9201C8.33398 30.7947 8.47803 30.695 8.63721 30.6269C8.79638 30.5588 8.96744 30.5238 9.14026 30.5238C9.31307 30.5238 9.48413 30.5588 9.64331 30.6269C9.80248 30.695 9.94654 30.7947 10.0669 30.9201L10.3991 31.2641C10.6197 31.4948 10.8839 31.6784 11.1759 31.8041C11.4679 31.9298 11.7819 31.9949 12.0992 31.9956C12.4166 31.9964 12.7308 31.9327 13.0234 31.8084C13.316 31.6842 13.581 31.5018 13.8027 31.2721L14.1559 30.9121C14.2762 30.7873 14.4201 30.6883 14.5789 30.6208C14.7378 30.5534 14.9084 30.519 15.0807 30.5196C15.253 30.5203 15.4234 30.5559 15.5818 30.6245C15.7402 30.693 15.8833 30.7931 16.0027 30.9187L16.3191 31.2467C16.7488 31.7001 17.3538 31.9827 18.0235 31.9827H18.0274C18.6958 31.9827 19.2995 31.7027 19.7305 31.2521L20.0522 30.9174C20.1726 30.792 20.3166 30.6923 20.4758 30.6243C20.635 30.5562 20.806 30.5211 20.9788 30.5211C21.1517 30.5211 21.3227 30.5562 21.4819 30.6243C21.6411 30.6923 21.7851 30.792 21.9055 30.9174L22.2298 31.2534C22.6622 31.7027 23.2659 31.9814 23.9342 31.9814C24.6025 31.9814 25.2063 31.7027 25.6386 31.2534L25.9629 30.9174C26.0833 30.792 26.2274 30.6923 26.3865 30.6243C26.5457 30.5562 26.7168 30.5211 26.8896 30.5211C27.0624 30.5211 27.2334 30.5562 27.3926 30.6243C27.5518 30.6923 27.6959 30.792 27.8163 30.9174C27.8667 30.9706 27.9273 31.013 27.9943 31.0419C28.0614 31.0709 28.1335 31.0858 28.2064 31.0858C28.2793 31.0858 28.3515 31.0709 28.4185 31.0419C28.4856 31.013 28.5462 30.9706 28.5966 30.9174C28.7031 30.8096 28.7631 30.6636 28.7636 30.5113C28.7641 30.3589 28.705 30.2126 28.5993 30.1041V30.1121Z" fill="black"/>
</g>
<defs>
<clipPath id="clip0_138_997">
<rect width="29" height="32" fill="white"/>
</clipPath>
</defs>
</svg>
