<svg width="32" height="32" viewBox="0 0 32 32" fill="none" xmlns="http://www.w3.org/2000/svg">
<path fill-rule="evenodd" clip-rule="evenodd" d="M27.3953 13.4064L28.4138 14.2344C28.6165 14.3948 28.8734 14.4676 29.1286 14.437C29.3839 14.4065 29.617 14.2749 29.7774 14.0709C29.9378 13.867 30.0125 13.607 29.9855 13.3474C29.9584 13.0878 29.8317 12.8496 29.6327 12.6842L19.0513 4.08726C18.1853 3.38345 17.1092 3 16 3C14.8908 3 13.8147 3.38345 12.9487 4.08726L2.36726 12.6842C2.16485 12.8486 2.03502 13.0879 2.00632 13.3494C1.97763 13.611 2.05241 13.8734 2.21423 14.0789C2.37605 14.2845 2.61165 14.4164 2.86919 14.4455C3.12674 14.4746 3.38513 14.3987 3.58754 14.2344L4.60465 13.4064V27.0161H2.97674C2.7177 27.0161 2.46926 27.1206 2.28608 27.3066C2.10291 27.4926 2 27.745 2 28.008C2 28.2711 2.10291 28.5234 2.28608 28.7095C2.46926 28.8955 2.7177 29 2.97674 29H29.0233C29.2823 29 29.5307 28.8955 29.7139 28.7095C29.8971 28.5234 30 28.2711 30 28.008C30 27.745 29.8971 27.4926 29.7139 27.3066C29.5307 27.1206 29.2823 27.0161 29.0233 27.0161H27.3953V13.4064ZM12.4186 11.4754C12.4186 10.5107 12.7959 9.58561 13.4676 8.9035C14.1392 8.2214 15.0502 7.83819 16 7.83819C16.9498 7.83819 17.8608 8.2214 18.5324 8.9035C19.2041 9.58561 19.5814 10.5107 19.5814 11.4754C19.5814 12.44 19.2041 13.3652 18.5324 14.0473C17.8608 14.7294 16.9498 15.1126 16 15.1126C15.0502 15.1126 14.1392 14.7294 13.4676 14.0473C12.7959 13.3652 12.4186 12.44 12.4186 11.4754ZM16.0651 16.4352C16.9299 16.4352 17.6761 16.4352 18.2739 16.5172C18.9146 16.6045 19.528 16.8015 20.0255 17.3068C20.523 17.812 20.717 18.435 20.803 19.0857C20.8785 19.6544 20.8837 20.3554 20.8837 21.1662V27.0161H18.9302V21.395C18.9302 20.4321 18.9276 19.8078 18.8677 19.3502C18.8104 18.9204 18.7193 18.7855 18.6437 18.7101C18.5682 18.6347 18.4367 18.5408 18.0134 18.4826C17.5615 18.4217 16.9481 18.4191 16 18.4191C15.0519 18.4191 14.4372 18.4217 13.9866 18.4826C13.5633 18.5408 13.4305 18.6347 13.3563 18.7101C13.282 18.7855 13.1896 18.9204 13.1323 19.3502C13.0724 19.8092 13.0698 20.4321 13.0698 21.395V27.0161H11.1163V21.3288C11.1163 20.4506 11.1163 19.6928 11.197 19.0857C11.283 18.435 11.477 17.812 11.9745 17.3068C12.472 16.8015 13.0867 16.6045 13.7261 16.5172C14.3239 16.4352 15.0701 16.4352 15.9362 16.4352H16.0651Z" fill="black"/>
</svg>
